<svg width="21" height="21" viewBox="0 0 21 21" fill="none" xmlns="http://www.w3.org/2000/svg">
<mask id="mask0_752_284" style="mask-type:alpha" maskUnits="userSpaceOnUse" x="0" y="0" width="21" height="21">
<rect x="0.431641" y="0.677307" width="20" height="20" fill="#D9D9D9"/>
</mask>
<g mask="url(#mask0_752_284)">
<path d="M10.4316 10.4208C9.71285 10.4208 9.10264 10.17 8.60098 9.66835C8.09917 9.16654 7.84827 8.55626 7.84827 7.83751C7.84827 7.11876 8.09917 6.50856 8.60098 6.00689C9.10264 5.50508 9.71285 5.25418 10.4316 5.25418C11.1504 5.25418 11.7606 5.50508 12.2622 6.00689C12.764 6.50856 13.0149 7.11876 13.0149 7.83751C13.0149 8.55626 12.764 9.16654 12.2622 9.66835C11.7606 10.17 11.1504 10.4208 10.4316 10.4208ZM4.84827 16.1004V14.5811C4.84827 14.3258 4.92438 14.0798 5.0766 13.8431C5.22882 13.6065 5.44174 13.4016 5.71535 13.2286C6.44174 12.8109 7.20521 12.4907 8.00577 12.2679C8.80632 12.0452 9.61348 11.9338 10.4272 11.9338C11.241 11.9338 12.0496 12.0452 12.8531 12.2679C13.6565 12.4907 14.4215 12.8109 15.1479 13.2286C15.4215 13.3877 15.6344 13.5891 15.7866 13.8327C15.9388 14.0763 16.0149 14.3258 16.0149 14.5811V16.1004H4.84827ZM5.9316 15.0171H14.9316V14.5811C14.9316 14.4931 14.8999 14.4104 14.8366 14.3329C14.7731 14.2554 14.6857 14.1897 14.5743 14.1356C13.9674 13.7681 13.3117 13.4898 12.6072 13.3006C11.9026 13.1116 11.1774 13.0171 10.4316 13.0171C9.68577 13.0171 8.96056 13.1116 8.25598 13.3006C7.55153 13.4898 6.89584 13.7681 6.28889 14.1356C6.17681 14.2126 6.08924 14.2863 6.02618 14.3567C5.96313 14.4271 5.9316 14.5019 5.9316 14.5811V15.0171ZM10.436 9.33751C10.8497 9.33751 11.2024 9.19022 11.4941 8.89564C11.7858 8.60106 11.9316 8.24689 11.9316 7.83314C11.9316 7.41939 11.7843 7.06668 11.4897 6.77501C11.1951 6.48335 10.841 6.33751 10.4272 6.33751C10.0135 6.33751 9.66077 6.48487 9.3691 6.7796C9.07743 7.07418 8.9316 7.42835 8.9316 7.8421C8.9316 8.25571 9.07889 8.60835 9.37348 8.90001C9.66806 9.19168 10.0222 9.33751 10.436 9.33751Z" fill="#1C1B1F"/>
</g>
</svg>
